dataset
version=1
nRows=14
nColumns=39
inDegrees=no
endheader
time	sternoclavicular_r2	sternoclavicular_r3	unrotscap_r3	unrotscap_r2	acromioclavicular_r2	acromioclavicular_r3	acromioclavicular_r1	unrothum_r1	unrothum_r3	unrothum_r2	elv_angle	shoulder_elv	shoulder1_r2	shoulder_rot	elbow_flexion	pro_sup	deviation	flexion	cmc_abduction	cmc_flexion	mp_flexion	ip_flexion	mcp2_flexion	mcp2_abduction	pm2_flexion	md2_flexion	mcp3_flexion	mcp3_abduction	pm3_flexion	md3_flexion	mcp4_flexion	mcp4_abduction	pm4_flexion	md4_flexion	mcp5_flexion	mcp5_abduction	pm5_flexion	md5_flexion
0.000000	-0.015838	-0.214212	0.068629	0.108607	0.096378	0.060748	-0.048952	-0.103326	0.093917	0.158460	0.145749	0.027437	0.146525	0.146525	1.138543	0.871851	0.000000	0.000000	0.000000	0.000000	0.000000	0.000000	0.000000	0.000000	0.000000	0.000000	0.000000	0.000000	0.000000	0.000000	0.000000	0.000000	0.000000	0.000000	0.000000	0.000000	0.000000	0.000000
0.005000	-0.015835	-0.214148	0.068609	0.108586	0.096357	0.060748	-0.048927	-0.103328	0.093930	0.158440	0.145733	0.027437	0.146525	0.146525	1.138410	0.875941	0.000000	0.000000	0.000000	0.000000	0.000000	0.000000	0.000000	0.000000	0.000000	0.000000	0.000000	0.000000	0.000000	0.000000	0.000000	0.000000	0.000000	0.000000	0.000000	0.000000	0.000000	0.000000
0.010000	-0.015830	-0.214083	0.068585	0.108560	0.096331	0.060744	-0.048898	-0.103347	0.093952	0.158417	0.145714	0.027437	0.146525	0.146525	1.138313	0.879988	0.000000	0.000000	0.000000	0.000000	0.000000	0.000000	0.000000	0.000000	0.000000	0.000000	0.000000	0.000000	0.000000	0.000000	0.000000	0.000000	0.000000	0.000000	0.000000	0.000000	0.000000	0.000000
0.015000	-0.015826	-0.214017	0.068559	0.108529	0.096301	0.060740	-0.048869	-0.103377	0.093980	0.158393	0.145693	0.027437	0.146525	0.146525	1.138256	0.883991	0.000000	0.000000	0.000000	0.000000	0.000000	0.000000	0.000000	0.000000	0.000000	0.000000	0.000000	0.000000	0.000000	0.000000	0.000000	0.000000	0.000000	0.000000	0.000000	0.000000	0.000000	0.000000
0.020000	-0.015821	-0.213950	0.068533	0.108494	0.096266	0.060734	-0.048839	-0.103416	0.094011	0.158366	0.145668	0.027437	0.146525	0.146525	1.138242	0.887951	0.000000	0.000000	0.000000	0.000000	0.000000	0.000000	0.000000	0.000000	0.000000	0.000000	0.000000	0.000000	0.000000	0.000000	0.000000	0.000000	0.000000	0.000000	0.000000	0.000000	0.000000	0.000000
0.025000	-0.015815	-0.213883	0.068509	0.108455	0.096227	0.060729	-0.048811	-0.103464	0.094045	0.158337	0.145641	0.027437	0.146525	0.146525	1.138276	0.891869	0.000000	0.000000	0.000000	0.000000	0.000000	0.000000	0.000000	0.000000	0.000000	0.000000	0.000000	0.000000	0.000000	0.000000	0.000000	0.000000	0.000000	0.000000	0.000000	0.000000	0.000000	0.000000
0.030000	-0.015809	-0.213815	0.068487	0.108412	0.096184	0.060724	-0.048784	-0.103519	0.094082	0.158304	0.145609	0.027437	0.146525	0.146525	1.138361	0.895745	0.000000	0.000000	0.000000	0.000000	0.000000	0.000000	0.000000	0.000000	0.000000	0.000000	0.000000	0.000000	0.000000	0.000000	0.000000	0.000000	0.000000	0.000000	0.000000	0.000000	0.000000	0.000000
0.035000	-0.015803	-0.213747	0.068467	0.108364	0.096137	0.060720	-0.048760	-0.103581	0.094121	0.158268	0.145573	0.027437	0.146525	0.146525	1.138501	0.899580	0.000000	0.000000	0.000000	0.000000	0.000000	0.000000	0.000000	0.000000	0.000000	0.000000	0.000000	0.000000	0.000000	0.000000	0.000000	0.000000	0.000000	0.000000	0.000000	0.000000	0.000000	0.000000
0.040000	-0.015796	-0.213680	0.068449	0.108312	0.096085	0.060716	-0.048738	-0.103651	0.094161	0.158229	0.145533	0.027437	0.146525	0.146525	1.138699	0.903374	0.000000	0.000000	0.000000	0.000000	0.000000	0.000000	0.000000	0.000000	0.000000	0.000000	0.000000	0.000000	0.000000	0.000000	0.000000	0.000000	0.000000	0.000000	0.000000	0.000000	0.000000	0.000000
0.045000	-0.015788	-0.213612	0.068434	0.108256	0.096028	0.060713	-0.048718	-0.103729	0.094204	0.158187	0.145489	0.027437	0.146525	0.146525	1.138961	0.907130	0.000000	0.000000	0.000000	0.000000	0.000000	0.000000	0.000000	0.000000	0.000000	0.000000	0.000000	0.000000	0.000000	0.000000	0.000000	0.000000	0.000000	0.000000	0.000000	0.000000	0.000000	0.000000
0.050000	-0.015780	-0.213544	0.068421	0.108196	0.095967	0.060710	-0.048700	-0.103814	0.094248	0.158141	0.145441	0.027437	0.146525	0.146525	1.139289	0.910846	0.000000	0.000000	0.000000	0.000000	0.000000	0.000000	0.000000	0.000000	0.000000	0.000000	0.000000	0.000000	0.000000	0.000000	0.000000	0.000000	0.000000	0.000000	0.000000	0.000000	0.000000	0.000000
0.055000	-0.015772	-0.213476	0.068411	0.108130	0.095900	0.060708	-0.048685	-0.103907	0.094295	0.158091	0.145388	0.027437	0.146525	0.146525	1.139688	0.914524	0.000000	0.000000	0.000000	0.000000	0.000000	0.000000	0.000000	0.000000	0.000000	0.000000	0.000000	0.000000	0.000000	0.000000	0.000000	0.000000	0.000000	0.000000	0.000000	0.000000	0.000000	0.000000
0.060000	-0.015763	-0.213408	0.068404	0.108060	0.095829	0.060707	-0.048673	-0.104008	0.094344	0.158037	0.145331	0.027437	0.146525	0.146525	1.140161	0.918165	0.000000	0.000000	0.000000	0.000000	0.000000	0.000000	0.000000	0.000000	0.000000	0.000000	0.000000	0.000000	0.000000	0.000000	0.000000	0.000000	0.000000	0.000000	0.000000	0.000000	0.000000	0.000000
0.065000	-0.015754	-0.213341	0.068401	0.107985	0.095753	0.060707	-0.048663	-0.104118	0.094395	0.157980	0.145269	0.027437	0.146525	0.146525	1.140713	0.921769	0.000000	0.000000	0.000000	0.000000	0.000000	0.000000	0.000000	0.000000	0.000000	0.000000	0.000000	0.000000	0.000000	0.000000	0.000000	0.000000	0.000000	0.000000	0.000000	0.000000	0.000000	0.000000
